HIERARCHY
ROOT hip
{
	OFFSET	0.00  0.00  0.00 
	CHANNELS 6 Xposition Yposition Zposition Xrotation Zrotation Yrotation
	JOINT abdomen
	{
		OFFSET	0.000000 1.799998 0.000000
		CHANNELS 3 Xrotation Zrotation Yrotation
		JOINT chest
		{
			OFFSET	0.000000 4.464001 -0.360000
			CHANNELS 3 Xrotation Zrotation Yrotation
			JOINT neck
			{
				OFFSET	0.000000 5.400002 -0.144000
				CHANNELS 3 Xrotation Zrotation Yrotation
				JOINT head
				{
					OFFSET	0.000000 1.655998 0.000000
					CHANNELS 3 Xrotation Zrotation Yrotation
				}
			}
			JOINT lCollar
			{
				OFFSET	1.800000 3.528000 -0.432000
				CHANNELS 3 Yrotation Zrotation Xrotation
				JOINT lShldr
				{
					OFFSET	1.728000 0.000000 0.000000
					CHANNELS 3 Zrotation Yrotation Xrotation
					JOINT lForeArm
					{
						OFFSET	5.328000 0.000000 0.000000
						CHANNELS 3 Yrotation Zrotation Xrotation
						JOINT lHand
						{
							OFFSET	4.464000 0.000000 0.000000
							CHANNELS 3 Zrotation Yrotation Xrotation
						}
					}
				}
			}
			JOINT rCollar
			{
				OFFSET	-1.872000 3.528000 -0.432000
				CHANNELS 3 Yrotation Zrotation Xrotation
				JOINT rShldr
				{
					OFFSET	-1.656000 0.000000 0.000000
					CHANNELS 3 Zrotation Yrotation Xrotation
					JOINT rForeArm
					{
						OFFSET	-5.400000 0.000000 0.000000
						CHANNELS 3 Yrotation Zrotation Xrotation
						JOINT rHand
						{
							OFFSET	-4.392000 0.000000 0.000000
							CHANNELS 3 Zrotation Yrotation Xrotation
						}
					}
				}
			}
		}
	}
	JOINT lThigh
	{
		OFFSET	2.808000 -0.864002 0.720000
		CHANNELS 3 Xrotation Zrotation Yrotation
		JOINT lShin
		{
			OFFSET	-1.080000 -10.583999 0.000000
			CHANNELS 3 Xrotation Zrotation Yrotation
			JOINT lFoot
			{
				OFFSET	0.000000 -10.152000 -0.648000
				CHANNELS 3 Xrotation Yrotation Zrotation
				End Site
				{
					OFFSET 0.000000 -1.296000 2.448000
				}
			}
		}
	}
	JOINT rThigh
	{
		OFFSET	-2.808000 -0.864002 0.720000
		CHANNELS 3 Xrotation Zrotation Yrotation
		JOINT rShin
		{
			OFFSET	1.080000 -10.583999 0.000000
			CHANNELS 3 Xrotation Zrotation Yrotation
			JOINT rFoot
			{
				OFFSET	0.000000 -10.152000 -0.648000
				CHANNELS 3 Xrotation Yrotation Zrotation
				End Site
				{
					OFFSET 0.000000 -1.296000 2.448000
				}
			}
		}
	}
}
MOTION
Frames:     13
Frame Time: 0.033333
0.000000 23.151886 0.000000 0.000000 0.000000 0.000000 2.313860 0.169218 10.717470 6.899489 -0.685439 11.465931 0.360408 0.215032 -13.774434 -12.872691 -4.093521 -12.092494 -26.107800 2.169780 -0.204670 -77.055901 4.434520 1.465570 -12.171900 -5.000000 -17.179800 -12.299240 9.000000 -0.008974 18.332996 1.333738 0.049464 51.202755 24.918421 -22.054689 64.949364 3.431138 -19.210087 0.000000 0.000000 6.885340 0.000000 0.000000 0.000000 0.009766 0.000000 0.000000 -0.097656 0.000000 0.000000 0.000000 -0.019531 0.000000 0.009766 0.019531 -0.009766 0.166016 0.009766 0.000000 
0.000000 23.151886 0.000000 0.000000 0.000000 0.000000 2.497739 0.260331 10.773755 8.341599 -0.719159 11.569741 0.673280 0.242583 -13.812468 -13.326100 -4.056908 -12.424803 -26.107800 2.169780 -0.204670 -77.055901 4.434520 1.465570 -12.171900 -5.000000 -17.179800 -12.299240 9.000000 -0.008974 18.588999 1.705161 0.067811 51.766300 25.808001 -22.255800 68.465302 3.288514 -19.249582 0.000000 0.000000 6.821267 0.000000 0.000000 0.000000 0.009766 0.000000 0.000000 -0.097656 0.000000 0.000000 0.000000 -0.019531 0.000000 0.009766 0.019531 -0.009766 0.166016 0.009766 0.000000 
0.000000 23.151886 0.000000 0.000000 0.000000 0.000000 2.678411 0.344594 10.750552 9.432633 -0.752826 11.596570 1.052171 0.261263 -13.850501 -13.789966 -4.012759 -12.764209 -26.107800 2.169780 -0.204670 -77.055901 4.434520 1.465570 -12.171900 -5.000000 -17.179800 -12.299240 9.000000 -0.008974 18.850365 2.068126 0.075672 53.873413 26.353006 -21.411575 68.369064 3.145891 -19.289078 0.000000 0.000000 6.744006 0.000000 0.000000 0.000000 0.009766 0.000000 0.000000 -0.097656 0.000000 0.000000 0.000000 -0.019531 0.000000 0.009766 0.019531 -0.009766 0.166016 0.009766 0.000000 
0.000000 23.151886 0.000000 0.000000 0.000000 0.000000 2.851620 0.417839 10.690700 9.994551 -0.786427 11.590100 1.485535 0.271881 -13.888535 -14.261797 -3.961440 -13.109571 -26.107800 2.169780 -0.204670 -77.055901 4.434520 1.465570 -12.171900 -5.000000 -17.179800 -12.299240 9.000000 -0.008974 19.116354 2.412011 0.067442 56.075100 26.604099 -20.021400 63.976398 3.003267 -19.328573 0.000000 0.000000 6.654197 0.000000 0.000000 0.000000 0.009766 0.000000 0.000000 -0.097656 0.000000 0.000000 0.000000 -0.019531 0.000000 0.009766 0.019531 -0.009766 0.166016 0.009766 0.000000 
0.000000 23.151886 0.000000 0.000000 0.000000 0.000000 3.013909 0.476727 10.629846 9.849310 -0.819947 11.586639 1.961827 0.275241 -13.926568 -14.739106 -3.903316 -13.459751 -26.107800 2.169780 -0.204670 -77.055901 4.434520 1.465570 -12.171900 -5.000000 -17.179800 -12.299240 9.000000 -0.008974 19.386232 2.726190 0.037517 56.905060 26.757204 -18.650871 55.701691 2.860643 -19.368069 0.000000 0.000000 6.552480 0.000000 0.000000 0.000000 0.009766 0.000000 0.000000 -0.097656 0.000000 0.000000 0.000000 -0.019531 0.000000 0.009766 0.019531 -0.009766 0.166016 0.009766 0.000000 
0.000000 23.151886 0.000000 0.000000 0.000000 0.000000 3.165127 0.521360 10.574823 8.937398 -0.853374 11.592909 2.469502 0.272149 -13.964602 -15.219399 -3.838755 -13.813605 -26.107800 2.169780 -0.204670 -77.055901 4.434520 1.465570 -12.171900 -5.000000 -17.179800 -12.299240 9.000000 -0.008974 19.659260 3.000040 -0.019708 56.489868 26.855352 -17.408766 48.205898 2.718019 -19.407564 0.000000 0.000000 6.439496 0.000000 0.000000 0.000000 0.009766 0.000000 0.000000 -0.097656 0.000000 0.000000 0.000000 -0.019531 0.000000 0.009766 0.019531 -0.009766 0.166016 0.009766 0.000000 
0.000000 23.151886 0.000000 0.000000 0.000000 0.000000 3.305938 0.552681 10.525269 7.692749 -0.886695 11.608242 2.997015 0.263414 -14.002635 -15.700184 -3.768122 -14.169991 -26.107800 2.169780 -0.204670 -77.055901 4.434520 1.465570 -12.171900 -5.000000 -17.179800 -12.299240 9.000000 -0.008974 19.934698 3.225162 -0.108428 55.354317 26.903330 -16.289650 45.923302 2.575396 -19.447060 0.000000 0.000000 6.315886 0.000000 0.000000 0.000000 0.009766 0.000000 0.000000 -0.097656 0.000000 0.000000 0.000000 -0.019531 0.000000 0.009766 0.019531 -0.009766 0.166016 0.009766 0.000000 
0.000000 23.151886 0.000000 0.000000 0.000000 0.000000 3.436987 0.571609 10.480829 6.590470 -0.919895 11.631993 3.532822 0.249840 -14.040668 -16.178974 -3.691782 -14.527774 -26.107800 2.169780 -0.204670 -77.055901 4.434520 1.465570 -12.171900 -5.000000 -17.179800 -12.299240 9.000000 -0.008974 20.211811 3.402054 -0.227207 54.023201 26.905933 -15.288091 48.134933 2.432772 -19.486555 0.000000 0.000000 6.182289 0.000000 0.000000 0.000000 0.009766 0.000000 0.000000 -0.097656 0.000000 0.000000 0.000000 -0.019531 0.000000 0.009766 0.019531 -0.009766 0.166016 0.009766 0.000000 
0.000000 23.151886 0.000000 0.000000 0.000000 0.000000 3.558895 0.579035 10.441164 7.172399 -0.952961 11.663534 4.065376 0.232234 -14.078702 -16.653276 -3.610102 -14.885812 -26.107800 2.169780 -0.204670 -77.055901 4.434520 1.465570 -12.171900 -5.000000 -17.179800 -12.299240 9.000000 -0.008974 20.489864 3.533436 -0.373200 52.928856 26.867958 -14.398656 52.833538 2.290148 -19.526051 0.000000 0.000000 6.039347 0.000000 0.000000 0.000000 0.009766 0.000000 0.000000 -0.097656 0.000000 0.000000 0.000000 -0.019531 0.000000 0.009766 0.019531 -0.009766 0.166016 0.009766 0.000000 
0.000000 23.151886 0.000000 0.000000 0.000000 0.000000 3.672266 0.575825 10.405938 7.859917 -0.985878 11.702246 4.583134 0.211403 -14.116735 -17.120602 -3.523446 -15.242962 -26.107800 2.169780 -0.204670 -77.055901 4.434520 1.465570 -12.171900 -5.000000 -17.179800 -12.299240 9.000000 -0.008974 20.768120 3.622031 -0.543559 52.133732 26.794186 -13.615908 58.011852 2.147525 -19.565546 0.000000 0.000000 5.887699 0.000000 0.000000 0.000000 0.009766 0.000000 0.000000 -0.097656 0.000000 0.000000 0.000000 -0.019531 0.000000 0.009766 0.019531 -0.009766 0.166016 0.009766 0.000000 
0.000000 23.151886 0.000000 0.000000 0.000000 0.000000 3.777679 0.562821 10.374828 8.435040 -1.018631 11.747531 5.074550 0.188152 -14.154769 -17.578459 -3.432182 -15.598083 -26.107800 2.169780 -0.204670 -77.055901 4.434520 1.465570 -12.171900 -5.000000 -17.179800 -12.299240 9.000000 -0.008974 21.045841 3.670560 -0.735440 51.607864 26.689421 -12.934419 61.662624 2.004901 -19.605042 0.000000 0.000000 5.727984 0.000000 0.000000 0.000000 0.009766 0.000000 0.000000 -0.097656 0.000000 0.000000 0.000000 -0.019531 0.000000 0.009766 0.019531 -0.009766 0.166016 0.009766 0.000000 
0.000000 23.151886 0.000000 0.000000 0.000000 0.000000 3.875696 0.540837 10.347524 8.739472 -1.051205 11.798811 5.528079 0.163289 -14.192802 -18.024357 -3.336675 -15.950039 -26.107800 2.169780 -0.204670 -77.055901 4.434520 1.465570 -12.171900 -5.000000 -17.179800 -12.299240 9.000000 -0.008974 21.322289 3.681744 -0.945996 51.321259 26.558462 -12.348757 61.778599 1.862277 -19.644537 0.000000 0.000000 5.560844 0.000000 0.000000 0.000000 0.009766 0.000000 0.000000 -0.097656 0.000000 0.000000 0.000000 -0.019531 0.000000 0.009766 0.019531 -0.009766 0.166016 0.009766 0.000000 
0.000000 23.151886 0.000000 0.000000 0.000000 0.000000 3.966857 0.510662 10.323726 8.792797 -1.083585 11.855526 5.932177 0.137620 -14.230836 -18.455807 -3.237290 -16.297686 -26.107800 2.169780 -0.204670 -77.055901 4.434520 1.465570 -12.171900 -5.000000 -17.179800 -12.299240 9.000000 -0.008974 21.596724 3.658304 -1.172383 51.243912 26.406097 -11.853487 57.180775 1.719653 -19.684032 0.000000 0.000000 5.386919 0.000000 0.000000 0.000000 0.009766 0.000000 0.000000 -0.097656 0.000000 0.000000 0.000000 -0.019531 0.000000 0.009766 0.019531 -0.009766 0.166016 0.009766 0.000000 
